<svg width="10" height="7" viewBox="0 0 10 7" fill="none" xmlns="http://www.w3.org/2000/svg">
<path fill-rule="evenodd" clip-rule="evenodd" d="M9.78745 0.46254C9.89681 0.571931 9.95824 0.720278 9.95824 0.874957C9.95824 1.02964 9.89681 1.17798 9.78745 1.28737L4.24578 6.82904C4.13639 6.9384 3.98805 6.99983 3.83337 6.99983C3.67869 6.99983 3.53034 6.9384 3.42095 6.82904L0.795951 4.20404C0.689692 4.09402 0.630895 3.94667 0.632224 3.79372C0.633553 3.64077 0.694902 3.49447 0.803057 3.38631C0.911211 3.27816 1.05752 3.21681 1.21047 3.21548C1.36341 3.21415 1.51077 3.27295 1.62078 3.37921L3.83337 5.59179L8.96262 0.46254C9.07201 0.353182 9.22036 0.291748 9.37503 0.291748C9.52971 0.291748 9.67806 0.353182 9.78745 0.46254Z" fill="#849324"/>
</svg>
